# xmcd
#
# Track frame offsets:
#	150
#	15568
#	35344
#	53490
#	80242
#	98053
#	118595
#	134724
#	151574
#	169406
#	194082
#
# Disc length: 2837 seconds
#
# Revision: 1
# Processed by: cddbd v1.5.1PL0 Copyright (c) Steve Scherf et al.
# Submitted via: audiograbber 1.82.02
#
DISCID=8e0b130b
DTITLE=Nebo - Along The Way
DYEAR=2004
DGENRE=Rock
TTITLE0=Reap What You Sow
TTITLE1=The Show
TTITLE2=All Alone
TTITLE3=Driftin
TTITLE4=Better Days
TTITLE5=My Wave
TTITLE6=All Things Pass
TTITLE7=Lay Down
TTITLE8=Lie To Me
TTITLE9=Storm
TTITLE10=Nothing
EXTD=
EXTT0=
EXTT1=
EXTT2=
EXTT3=
EXTT4=
EXTT5=
EXTT6=
EXTT7=
EXTT8=
EXTT9=
EXTT10=
PLAYORDER=
